<svg width="127" height="143" viewBox="0 0 127 143" fill="none" xmlns="http://www.w3.org/2000/svg">
<path d="M66.3772 1.94302C65.7097 1.93094 65.0444 2.07481 64.4254 2.41039C52.8951 7.35577 41.5568 12.7957 30.3376 18.4123C28.317 19.0545 28.2722 21.3796 27.8023 23.0976C25.02 36.6075 22.9835 50.2411 21.0511 63.8922C20.493 67.3733 21.4519 70.8332 21.9282 74.2549C23.4703 84.3918 25.2585 94.4854 26.931 104.601H56.4165C56.1157 101.982 55.8975 99.3545 55.8103 96.7147C55.496 89.6868 54.9378 82.2834 57.8243 75.673C59.1137 72.7604 60.7815 69.6952 63.7724 68.2614C70.3137 64.9602 75.8222 59.9982 80.909 54.7991C85.5115 50.2969 89.3518 49.0815 92.1023 45.4161C94.4503 39.9151 89.7827 35.8951 83.8917 37.8099C77.0297 40.3035 70.4744 44.3448 63.0078 44.6435C56.2885 44.7479 51.1664 38.2389 51.0557 31.8548C60.6392 27.5597 71.7008 24.9905 81.9337 28.5679C88.0661 30.6295 95.4081 32.4866 99.2809 32.8076C102.096 33.0409 105.139 29.7777 104.779 26.8891C108.157 26.0014 110.361 20.5758 103.757 17.2781C95.9438 13.3769 81.8712 7.69777 68.3411 2.41039C67.7141 2.12299 67.0447 1.95507 66.3772 1.94302V1.94302Z" fill="#F7CFBE"/>
<path d="M66.3772 1.94302C65.7097 1.93094 65.0444 2.07481 64.4254 2.41039C52.8951 7.35577 41.5568 12.7957 30.3376 18.4123C28.317 19.0545 28.2722 21.3796 27.8023 23.0976C25.02 36.6075 22.9835 50.2411 21.0511 63.8922C20.493 67.3733 21.4519 70.8332 21.9282 74.2549C23.4703 84.3918 25.2585 94.4854 26.931 104.601H56.4165C56.1157 101.982 55.8975 99.3545 55.8103 96.7147C55.496 89.6868 54.9378 82.2834 57.8243 75.673C59.1137 72.7604 60.7815 69.6952 63.7724 68.2614C70.3137 64.9602 75.8222 59.9982 80.909 54.7991C85.5115 50.2969 89.3518 49.0815 92.1023 45.4161C94.4503 39.9151 89.7827 35.8951 83.8917 37.8099C77.0297 40.3035 70.4744 44.3448 63.0078 44.6435C56.2885 44.7479 51.1664 38.2389 51.0557 31.8548C60.6392 27.5597 71.7008 24.9905 81.9337 28.5679C88.0661 30.6295 95.4081 32.4866 99.2809 32.8076C102.096 33.0409 105.139 29.7777 104.779 26.8891C108.157 26.0014 110.361 20.5758 103.757 17.2781C95.9438 13.3769 81.8712 7.69777 68.3411 2.41039C67.7141 2.12299 67.0447 1.95507 66.3772 1.94302V1.94302Z" stroke="#E16049" stroke-width="3.5552" stroke-linecap="round" stroke-linejoin="round"/>
<path d="M40.521 18.0947C40.521 18.0947 40.521 18.0947 69.2294 11.0544C69.8023 10.9139 70.9972 11.0517 71.5402 11.2527C81.7298 15.025 95.6013 20.0889 102.643 23.9037C106.368 25.9221 104.738 29.8986 102.545 31.655C100.67 33.1564 98.1728 32.7732 98.2792 32.7022" stroke="#E16049" stroke-width="3.5552" stroke-linecap="round" stroke-linejoin="round"/>
<path d="M113.438 112.841H12.6554C6.7482 112.841 1.95947 117.629 1.95947 123.537V129.954C1.95947 135.861 6.7482 140.65 12.6554 140.65H113.438C119.345 140.65 124.134 135.861 124.134 129.954V123.537C124.134 117.629 119.345 112.841 113.438 112.841Z" fill="#F7E6BE" stroke="#E16049" stroke-opacity="0.955882" stroke-width="3.91899" stroke-linecap="round" stroke-linejoin="bevel"/>
<path d="M22.8634 119.354H26.6753V131.255H33.3684V134.136H22.8634V119.354Z" fill="#E3664E"/>
<path d="M35.7743 119.354H39.5861V134.136H35.7743V119.354Z" fill="#E3664E"/>
<path d="M42.6158 119.354H55.0415V121.661L47.1109 131.255H55.2692V134.136H42.3881V131.83L50.3188 122.236H42.6158V119.354Z" fill="#E3664E"/>
<path d="M67.0019 131.443H61.0416L60.101 134.136H56.2693L61.7445 119.354H66.2891L71.7643 134.136H67.9327L67.0019 131.443ZM61.9921 128.701H66.0416L64.0218 122.82L61.9921 128.701Z" fill="#E3664E"/>
<path d="M79.1307 125.909C79.9294 125.909 80.5003 125.76 80.8435 125.463C81.1934 125.166 81.3683 124.678 81.3683 123.998C81.3683 123.325 81.1934 122.843 80.8435 122.552C80.5003 122.262 79.9294 122.117 79.1307 122.117H77.5267V125.909H79.1307ZM77.5267 128.543V134.136H73.7148V119.354H79.5366C81.4838 119.354 82.9095 119.681 83.8138 120.335C84.7247 120.988 85.1801 122.021 85.1801 123.434C85.1801 124.411 84.9425 125.213 84.4673 125.84C83.9986 126.467 83.2891 126.929 82.3386 127.226C82.86 127.344 83.3254 127.615 83.7346 128.038C84.1505 128.453 84.5696 129.087 84.9921 129.939L87.0614 134.136H83.002L81.2 130.463C80.8369 129.724 80.4673 129.219 80.0911 128.948C79.7214 128.678 79.2264 128.543 78.6059 128.543H77.5267Z" fill="#E3664E"/>
<path d="M93.1307 122.236V131.255H94.497C96.0547 131.255 97.2429 130.869 98.0613 130.097C98.8864 129.325 99.2989 128.203 99.2989 126.731C99.2989 125.265 98.8897 124.15 98.0712 123.384C97.2527 122.618 96.0613 122.236 94.497 122.236H93.1307ZM89.3188 119.354H93.3386C95.5828 119.354 97.2527 119.516 98.3485 119.84C99.4508 120.156 100.395 120.698 101.18 121.463C101.873 122.13 102.388 122.899 102.725 123.77C103.061 124.641 103.23 125.628 103.23 126.731C103.23 127.846 103.061 128.843 102.725 129.721C102.388 130.592 101.873 131.361 101.18 132.028C100.388 132.793 99.4376 133.338 98.3287 133.661C97.2198 133.978 95.5564 134.136 93.3386 134.136H89.3188V119.354Z" fill="#E3664E"/>
</svg>
