<svg width="127" height="172" viewBox="0 0 127 172" fill="none" xmlns="http://www.w3.org/2000/svg">
<path d="M80.4623 133.602H45.9136L47.0281 120.6C47.0281 120.6 30.8915 111.015 32.8 98.0582C35.3113 81.0038 37.4874 64.3029 37.4874 64.3029C37.4874 64.3029 39.3251 29.0572 39.8583 18.9315C40.6014 4.81533 53.2615 4.85108 53.2615 17.1048C53.2615 34.193 53.4118 38.5598 53.1505 41.9641C52.7784 46.7932 53.7478 58.681 53.7478 58.681C53.7478 58.681 56.4934 14.2061 56.4934 8.15885C56.4934 2.21526 69.1234 -2.98584 69.8667 9.27316C70.9979 27.9396 68.6075 59.4237 68.6075 59.4237C68.6075 59.4237 71.2315 21.6284 72.8384 17.0745C75.0676 10.7591 83.7942 11.4795 83.6118 19.6748C83.2408 36.3635 81.6097 62.7674 81.6097 62.7674C81.6097 62.7674 83.2366 46.5562 84.307 36.3916C85.0495 29.3335 94.3364 24.504 94.7082 38.9924C94.9136 47.011 95.2 57.2779 93.9653 67.225C92.4111 79.7408 95.5958 89.8409 94.0956 96.5725C91.017 110.38 80.833 121.714 80.833 121.714L80.4623 133.602Z" fill="#F7CFBE"/>
<path d="M80.4623 133.602H45.9136L47.0281 120.6C47.0281 120.6 30.8915 111.015 32.8 98.0582C35.3113 81.0038 37.4874 64.3029 37.4874 64.3029C37.4874 64.3029 39.3251 29.0572 39.8583 18.9315C40.6014 4.81533 53.2615 4.85108 53.2615 17.1048C53.2615 34.193 53.4118 38.5598 53.1505 41.9641C52.7784 46.7932 53.7478 58.681 53.7478 58.681C53.7478 58.681 56.4934 14.2061 56.4934 8.15885C56.4934 2.21526 69.1234 -2.98584 69.8667 9.27316C70.9979 27.9396 68.6075 59.4237 68.6075 59.4237C68.6075 59.4237 71.2315 21.6284 72.8384 17.0745C75.0676 10.7591 83.7942 11.4795 83.6118 19.6748C83.2408 36.3635 81.6097 62.7674 81.6097 62.7674C81.6097 62.7674 83.2366 46.5562 84.307 36.3916C85.0495 29.3335 94.3364 24.504 94.7082 38.9924C94.9136 47.011 95.2 57.2779 93.9653 67.225C92.4111 79.7408 95.5958 89.8409 94.0956 96.5725C91.017 110.38 80.833 121.714 80.833 121.714L80.4623 133.602Z" stroke="#E16049" stroke-width="3.5552" stroke-linecap="round" stroke-linejoin="round"/>
<path d="M34.2856 107.717C34.2856 107.717 27.2281 92.4866 24.9991 88.3998C22.7699 84.313 17.1311 70.2252 15.7112 66.8533C12.7393 59.7952 22.7698 56.4519 27.2281 60.9098C31.6855 65.3674 38.3722 77.9982 38.3722 77.9982C38.3722 77.9982 46.0381 80.925 48.402 81.7132C52.8604 83.1989 55.8321 89.5141 55.8321 89.5141" fill="#F7CFBE"/>
<path d="M34.2856 107.717C34.2856 107.717 27.2281 92.4866 24.9991 88.3998C22.7699 84.313 17.1311 70.2252 15.7112 66.8533C12.7393 59.7952 22.7698 56.4519 27.2281 60.9098C31.6855 65.3674 38.3722 77.9982 38.3722 77.9982C38.3722 77.9982 46.0381 80.925 48.402 81.7132C52.8604 83.1989 55.8321 89.5141 55.8321 89.5141" stroke="#E16049" stroke-width="3.55528" stroke-linecap="round" stroke-linejoin="round"/>
<path d="M114.344 141.841H13.5623C7.65506 141.841 2.86633 146.629 2.86633 152.537V158.954C2.86633 164.861 7.65506 169.65 13.5623 169.65H114.344C120.252 169.65 125.04 164.861 125.04 158.954V152.537C125.04 146.629 120.252 141.841 114.344 141.841Z" fill="#F7E6BE" stroke="#E16049" stroke-opacity="0.955882" stroke-width="3.91899" stroke-linecap="round" stroke-linejoin="bevel"/>
<path d="M28.5871 148.354H34.9138C36.795 148.354 38.2373 148.773 39.2406 149.612C40.2505 150.443 40.7554 151.632 40.7554 153.176C40.7554 154.727 40.2505 155.922 39.2406 156.76C38.2373 157.592 36.795 158.008 34.9138 158.008H32.399V163.136H28.5871V148.354ZM32.399 151.117V155.245H34.5079C35.2472 155.245 35.8181 155.067 36.2208 154.711C36.6234 154.348 36.8247 153.836 36.8247 153.176C36.8247 152.516 36.6234 152.008 36.2208 151.651C35.8181 151.295 35.2472 151.117 34.5079 151.117H32.399Z" fill="#E3664E"/>
<path d="M50.5475 160.443H44.5871L43.6465 163.136H39.8148L45.29 148.354H49.8346L55.3099 163.136H51.4782L50.5475 160.443ZM45.5376 157.701H49.5871L47.5673 151.82L45.5376 157.701Z" fill="#E3664E"/>
<path d="M57.2603 148.354H63.5871C65.4683 148.354 66.9105 148.773 67.9138 149.612C68.9237 150.443 69.4286 151.632 69.4286 153.176C69.4286 154.727 68.9237 155.922 67.9138 156.76C66.9105 157.592 65.4683 158.008 63.5871 158.008H61.0722V163.136H57.2603V148.354ZM61.0722 151.117V155.245H63.1812C63.9204 155.245 64.4914 155.067 64.894 154.711C65.2966 154.348 65.498 153.836 65.498 153.176C65.498 152.516 65.2966 152.008 64.894 151.651C64.4914 151.295 63.9204 151.117 63.1812 151.117H61.0722Z" fill="#E3664E"/>
<path d="M72.1118 148.354H82.399V151.235H75.9237V153.988H82.0128V156.869H75.9237V160.255H82.6168V163.136H72.1118V148.354Z" fill="#E3664E"/>
<path d="M91.389 154.909C92.1877 154.909 92.7587 154.76 93.1019 154.463C93.4517 154.166 93.6267 153.678 93.6267 152.998C93.6267 152.325 93.4517 151.843 93.1019 151.552C92.7587 151.262 92.1877 151.117 91.389 151.117H89.7851V154.909H91.389ZM89.7851 157.542V163.136H85.9732V148.354H91.795C93.7421 148.354 95.1679 148.681 96.0722 149.334C96.9831 149.988 97.4385 151.021 97.4385 152.434C97.4385 153.41 97.2009 154.212 96.7256 154.839C96.257 155.467 95.5474 155.929 94.5969 156.226C95.1184 156.344 95.5837 156.615 95.993 157.038C96.4088 157.453 96.828 158.087 97.2504 158.938L99.3197 163.136H95.2603L93.4583 159.463C93.0953 158.724 92.7257 158.219 92.3494 157.948C91.9798 157.678 91.4848 157.542 90.8643 157.542H89.7851Z" fill="#E3664E"/>
</svg>
