<svg width="127" height="126" viewBox="0 0 127 126" fill="none" xmlns="http://www.w3.org/2000/svg">
<path d="M22.5225 53.5624V19.0138L35.5246 20.1285C35.5246 20.1285 50.8576 0.915626 63.834 2.68514C69.743 3.49078 72.5878 7.64147 73.5871 8.30789C75.1985 9.38188 83.3732 8.59564 91.7081 9.93685C102.023 11.5968 104.045 17.7926 102.452 23.6348C100.84 29.5436 95.9394 28.6727 95.9394 28.6727C95.9394 28.6727 101.512 32.3877 100.397 38.3311C99.4366 43.4561 93.7104 43.9032 93.7104 43.9032C93.7104 43.9032 98.2534 47.8812 96.6824 52.4482C94.2767 59.4399 86.6525 57.6487 86.6525 57.6487C86.6525 57.6487 94.3435 66.9279 84.6851 70.2708C75.0264 73.6149 68.838 68.7831 61.3653 67.9242C41.1686 65.6017 34.4105 53.934 34.4105 53.934L22.5225 53.5624Z" fill="#F7CFBE"/>
<path d="M22.5225 53.5624V19.0138L35.5246 20.1285C35.5246 20.1285 50.8576 0.915626 63.834 2.68514C69.743 3.49078 72.5878 7.64147 73.5871 8.30789C75.1985 9.38188 83.3732 8.59564 91.7081 9.93685C102.023 11.5968 104.045 17.7926 102.452 23.6348C100.84 29.5436 95.9394 28.6727 95.9394 28.6727C95.9394 28.6727 101.512 32.3877 100.397 38.3311C99.4366 43.4561 93.7104 43.9032 93.7104 43.9032C93.7104 43.9032 98.2534 47.8812 96.6824 52.4482C94.2767 59.4399 86.6525 57.6487 86.6525 57.6487C86.6525 57.6487 94.3435 66.9279 84.6851 70.2708C75.0264 73.6149 68.838 68.7831 61.3653 67.9242C41.1686 65.6017 34.4105 53.934 34.4105 53.934L22.5225 53.5624Z" stroke="#E16049" stroke-width="3.5552" stroke-linecap="round" stroke-linejoin="round"/>
<path d="M94.5784 28.3348C94.5784 28.3348 71.1357 19.7163 69.6237 27.926C67.9213 37.1728 72.6184 40.3975 76.2664 40.6778C81.0752 41.0481 94.3049 44.2585 94.3049 44.2585C94.3049 44.2585 66.8949 35.6028 65.6583 44.6706C64.3715 54.1055 72.3666 53.673 75.9625 54.9753C79.5586 56.2779 89.0677 58.1796 89.0677 58.1796C89.0677 58.1796 73.4849 54.1196 69.9412 53.2107C62.3608 51.2656 54.0906 65.4801 74.3138 67.8919L74.9323 69.5408" stroke="#E16049" stroke-width="3.5552" stroke-linecap="round" stroke-linejoin="round"/>
<path d="M55.4646 21.737C55.4646 21.737 61.2668 24.6165 61.7661 29.0089C64.2129 50.5147 82.0847 45.1814 79.8006 30.1712C76.407 7.87192 66.5199 4.02802 66.5199 4.02802" fill="#F7CFBE"/>
<path d="M55.4646 21.737C55.4646 21.737 61.2668 24.6165 61.7661 29.0089C64.2129 50.5147 82.0847 45.1814 79.8006 30.1712C76.407 7.87192 66.5199 4.02802 66.5199 4.02802" stroke="#E16049" stroke-width="3.5552" stroke-linecap="round" stroke-linejoin="round"/>
<path d="M113.933 96.0163H13.1507C7.24353 96.0163 2.4548 100.805 2.4548 106.712V113.13C2.4548 119.037 7.24353 123.826 13.1507 123.826H113.933C119.84 123.826 124.629 119.037 124.629 113.13V106.712C124.629 100.805 119.84 96.0163 113.933 96.0163Z" fill="#F7E6BE" stroke="#E16049" stroke-opacity="0.955882" stroke-width="3.91899" stroke-linecap="round" stroke-linejoin="bevel"/>
<path d="M37.8636 109.075C38.6623 109.075 39.2332 108.926 39.5765 108.629C39.9263 108.332 40.1013 107.844 40.1013 107.164C40.1013 106.491 39.9263 106.009 39.5765 105.718C39.2332 105.428 38.6623 105.283 37.8636 105.283H36.2597V109.075H37.8636ZM36.2597 111.708V117.302H32.4478V102.52H38.2695C40.2167 102.52 41.6425 102.847 42.5468 103.5C43.4577 104.154 43.9131 105.187 43.9131 106.599C43.9131 107.576 43.6755 108.378 43.2002 109.005C42.7316 109.632 42.022 110.094 41.0715 110.391C41.593 110.51 42.0583 110.781 42.4676 111.203C42.8834 111.619 43.3026 112.253 43.725 113.104L45.7943 117.302H41.7349L39.9329 113.629C39.5699 112.89 39.2003 112.385 38.824 112.114C38.4544 111.844 37.9594 111.708 37.3389 111.708H36.2597Z" fill="#E3664E"/>
<path d="M54.8043 105.015C53.6425 105.015 52.7416 105.444 52.1013 106.302C51.461 107.16 51.1409 108.368 51.1409 109.926C51.1409 111.477 51.461 112.682 52.1013 113.54C52.7416 114.398 53.6425 114.827 54.8043 114.827C55.9726 114.827 56.8768 114.398 57.5171 113.54C58.1574 112.682 58.4775 111.477 58.4775 109.926C58.4775 108.368 58.1574 107.16 57.5171 106.302C56.8768 105.444 55.9726 105.015 54.8043 105.015ZM54.8043 102.253C57.1805 102.253 59.0419 102.933 60.3884 104.292C61.7349 105.652 62.4082 107.53 62.4082 109.926C62.4082 112.316 61.7349 114.19 60.3884 115.55C59.0419 116.91 57.1805 117.59 54.8043 117.59C52.4346 117.59 50.5732 116.91 49.2201 115.55C47.8736 114.19 47.2003 112.316 47.2003 109.926C47.2003 107.53 47.8736 105.652 49.2201 104.292C50.5732 102.933 52.4346 102.253 54.8043 102.253Z" fill="#E3664E"/>
<path d="M77.0022 116.491C76.3026 116.854 75.5732 117.127 74.8141 117.312C74.0551 117.497 73.263 117.59 72.4379 117.59C69.9759 117.59 68.0254 116.903 66.5864 115.53C65.1475 114.151 64.428 112.283 64.428 109.926C64.428 107.563 65.1475 105.695 66.5864 104.322C68.0254 102.943 69.9759 102.253 72.4379 102.253C73.263 102.253 74.0551 102.345 74.8141 102.53C75.5732 102.715 76.3026 102.989 77.0022 103.352V106.411C76.296 105.929 75.5996 105.576 74.9132 105.352C74.2267 105.128 73.5039 105.015 72.7449 105.015C71.3851 105.015 70.3158 105.451 69.5369 106.322C68.7581 107.193 68.3686 108.395 68.3686 109.926C68.3686 111.451 68.7581 112.649 69.5369 113.52C70.3158 114.392 71.3851 114.827 72.7449 114.827C73.5039 114.827 74.2267 114.715 74.9132 114.49C75.5996 114.266 76.296 113.913 77.0022 113.431V116.491Z" fill="#E3664E"/>
<path d="M80.1706 102.52H83.9824V107.916L89.4775 102.52H93.9032L86.7844 109.52L94.6359 117.302H89.8636L83.9824 111.481V117.302H80.1706V102.52Z" fill="#E3664E"/>
</svg>
