<svg width="134" height="121" viewBox="0 0 134 121" fill="none" xmlns="http://www.w3.org/2000/svg">
<path d="M2.60264 47.9035V13.3554L15.6047 14.4695C15.6047 14.4695 32.7675 0.59674 45.7243 2.50509C62.7782 5.01692 71.901 4.92924 71.901 4.92924C71.901 4.92924 106.318 2.8946 116.456 2.70517C128.813 2.47447 130.646 16.2812 118.471 17.6647C102.334 19.4981 71.7226 22.1826 71.7226 22.1826C77.7913 24.583 110.801 32.9231 118.471 34.7938C131.722 38.0257 127.789 51.4498 118.11 50.2128C103.411 48.3337 75.7285 38.2444 75.7285 38.2444C75.7285 38.2444 80.2714 42.2226 78.7004 46.7892C76.2951 53.7813 68.6706 51.9899 68.6706 51.9899C68.6706 51.9899 72.8643 59.3525 63.2057 62.6958C53.5474 66.0394 48.7533 64.0431 41.4445 62.2654C27.6998 58.9219 14.4902 48.2752 14.4902 48.2752L2.60264 47.9035Z" fill="#F7CFBE"/>
<path d="M2.60264 47.9035V13.3554L15.6047 14.4695C15.6047 14.4695 32.7675 0.59674 45.7243 2.50509C62.7782 5.01692 71.901 4.92924 71.901 4.92924C71.901 4.92924 106.318 2.8946 116.456 2.70517C128.813 2.47447 130.646 16.2812 118.471 17.6647C102.334 19.4981 71.7226 22.1826 71.7226 22.1826C77.7913 24.583 110.801 32.9231 118.471 34.7938C131.722 38.0257 127.789 51.4498 118.11 50.2128C103.411 48.3337 75.7285 38.2444 75.7285 38.2444C75.7285 38.2444 80.2714 42.2226 78.7004 46.7892C76.2951 53.7813 68.6706 51.9899 68.6706 51.9899C68.6706 51.9899 72.8643 59.3525 63.2057 62.6958C53.5474 66.0394 48.7533 64.0431 41.4445 62.2654C27.6998 58.9219 14.4902 48.2752 14.4902 48.2752L2.60264 47.9035Z" stroke="#E16049" stroke-width="3.5552" stroke-linecap="round" stroke-linejoin="round"/>
<path d="M75.7286 38.2444C75.7286 38.2444 51.6971 25.9854 48.3541 34.9015C45.011 43.8172 51.6971 43.8172 55.041 45.6743C58.3841 47.5321 68.6707 51.9899 68.6707 51.9899C68.6707 51.9899 52.3081 44.0416 48.6626 43.7356C43.2612 43.2823 41.323 49.8372 43.5519 52.4373C45.7805 55.0379 53.21 58.0096 53.21 58.0096L55.036 60.5581" stroke="#E16049" stroke-width="3.5552" stroke-linecap="round" stroke-linejoin="round"/>
<path d="M35.5439 16.0785C35.5439 16.0785 41.1193 18.9897 41.8462 23.35C44.2702 37.8932 61.0964 39.3298 58.8124 24.3192C55.419 2.02032 44.7546 2.98991 44.7546 2.98991" fill="#F7CFBE"/>
<path d="M35.5439 16.0785C35.5439 16.0785 41.1193 18.9897 41.8462 23.35C44.2702 37.8932 61.0964 39.3298 58.8124 24.3192C55.419 2.02032 44.7546 2.98991 44.7546 2.98991" stroke="#E16049" stroke-width="3.5552" stroke-linecap="round" stroke-linejoin="round"/>
<path d="M120.696 90.445H19.9139C14.0067 90.445 9.21798 95.2337 9.21798 101.141V107.558C9.21798 113.466 14.0067 118.254 19.9139 118.254H120.696C126.603 118.254 131.392 113.466 131.392 107.558V101.141C131.392 95.2337 126.603 90.445 120.696 90.445Z" fill="#F7E6BE" stroke="#E16049" stroke-opacity="0.955882" stroke-width="3.91899" stroke-linecap="round" stroke-linejoin="bevel"/>
<path d="M28.587 97.4138V100.543C27.7752 100.18 26.9831 99.9057 26.2108 99.7209C25.4385 99.5361 24.7092 99.4436 24.0227 99.4436C23.1118 99.4436 22.4385 99.5689 22.0029 99.8197C21.5673 100.071 21.3494 100.46 21.3494 100.988C21.3494 101.384 21.4946 101.694 21.7851 101.919C22.0821 102.137 22.6167 102.325 23.389 102.483L25.0128 102.81C26.6563 103.14 27.8246 103.642 28.5177 104.315C29.2108 104.988 29.5573 105.945 29.5573 107.186C29.5573 108.816 29.0722 110.031 28.1019 110.83C27.1382 111.622 25.6629 112.018 23.6761 112.018C22.7388 112.018 21.7982 111.929 20.8543 111.751C19.9105 111.572 18.9666 111.308 18.0227 110.958V107.741C18.9666 108.242 19.8775 108.622 20.7554 108.879C21.6399 109.13 22.4913 109.256 23.3098 109.256C24.1415 109.256 24.7784 109.117 25.2207 108.84C25.6629 108.562 25.8841 108.166 25.8841 107.652C25.8841 107.19 25.7322 106.833 25.4286 106.582C25.1316 106.331 24.5342 106.107 23.6366 105.909L22.1613 105.582C20.6827 105.265 19.6003 104.76 18.9138 104.067C18.2339 103.374 17.894 102.44 17.894 101.265C17.894 99.7934 18.3692 98.6614 19.3197 97.8693C20.2702 97.0773 21.6365 96.6812 23.4187 96.6812C24.2306 96.6812 25.0656 96.7439 25.9237 96.8694C26.7818 96.9882 27.6695 97.1696 28.587 97.4138V97.4138Z" fill="#E3664E"/>
<path d="M43.9138 110.919C43.2141 111.282 42.4847 111.556 41.7257 111.741C40.9666 111.925 40.1745 112.018 39.3494 112.018C36.8874 112.018 34.9369 111.331 33.498 109.958C32.059 108.579 31.3395 106.711 31.3395 104.355C31.3395 101.991 32.059 100.123 33.498 98.7504C34.9369 97.3709 36.8874 96.6812 39.3494 96.6812C40.1745 96.6812 40.9666 96.7737 41.7257 96.9585C42.4847 97.1434 43.2141 97.4172 43.9138 97.7802V100.84C43.2075 100.358 42.5111 100.005 41.8246 99.7803C41.1382 99.5559 40.4154 99.4436 39.6563 99.4436C38.2966 99.4436 37.2273 99.8792 36.4484 100.751C35.6695 101.622 35.2801 102.823 35.2801 104.355C35.2801 105.879 35.6695 107.077 36.4484 107.949C37.2273 108.82 38.2966 109.256 39.6563 109.256C40.4154 109.256 41.1382 109.143 41.8246 108.919C42.5111 108.694 43.2075 108.341 43.9138 107.859V110.919Z" fill="#E3664E"/>
<path d="M46.3595 96.9483H50.1713V111.73H46.3595V96.9483Z" fill="#E3664E"/>
<path d="M63.4882 97.4138V100.543C62.6763 100.18 61.8842 99.9057 61.112 99.7209C60.3397 99.5361 59.6103 99.4436 58.9239 99.4436C58.013 99.4436 57.3397 99.5689 56.9041 99.8197C56.4684 100.071 56.2506 100.46 56.2506 100.988C56.2506 101.384 56.3958 101.694 56.6862 101.919C56.9832 102.137 57.5179 102.325 58.2902 102.483L59.9139 102.81C61.5575 103.14 62.7258 103.642 63.4189 104.315C64.1119 104.988 64.4585 105.945 64.4585 107.186C64.4585 108.816 63.9733 110.031 63.003 110.83C62.0393 111.622 60.5641 112.018 58.5773 112.018C57.64 112.018 56.6994 111.929 55.7555 111.751C54.8116 111.572 53.8678 111.308 52.9239 110.958V107.741C53.8678 108.242 54.7786 108.622 55.6565 108.879C56.541 109.13 57.3925 109.256 58.211 109.256C59.0427 109.256 59.6796 109.117 60.1218 108.84C60.5641 108.562 60.7852 108.166 60.7852 107.652C60.7852 107.19 60.6334 106.833 60.3298 106.582C60.0327 106.331 59.4354 106.107 58.5377 105.909L57.0624 105.582C55.5839 105.265 54.5014 104.76 53.815 104.067C53.1351 103.374 52.7951 102.44 52.7951 101.265C52.7951 99.7934 53.2704 98.6614 54.2209 97.8693C55.1714 97.0773 56.5377 96.6812 58.3199 96.6812C59.1318 96.6812 59.9668 96.7439 60.8248 96.8694C61.6829 96.9882 62.5707 97.1696 63.4882 97.4138V97.4138Z" fill="#E3664E"/>
<path d="M76.4684 97.4138V100.543C75.6565 100.18 74.8645 99.9057 74.0922 99.7209C73.3199 99.5361 72.5905 99.4436 71.904 99.4436C70.9931 99.4436 70.3199 99.5689 69.8842 99.8197C69.4486 100.071 69.2308 100.46 69.2308 100.988C69.2308 101.384 69.376 101.694 69.6664 101.919C69.9635 102.137 70.4981 102.325 71.2704 102.483L72.8941 102.81C74.5377 103.14 75.706 103.642 76.3991 104.315C77.0922 104.988 77.4387 105.945 77.4387 107.186C77.4387 108.816 76.9535 110.031 75.9833 110.83C75.0196 111.622 73.5443 112.018 71.5575 112.018C70.6202 112.018 69.6796 111.929 68.7357 111.751C67.7918 111.572 66.8479 111.308 65.904 110.958V107.741C66.8479 108.242 67.7588 108.622 68.6367 108.879C69.5212 109.13 70.3727 109.256 71.1912 109.256C72.0228 109.256 72.6598 109.117 73.1021 108.84C73.5443 108.562 73.7655 108.166 73.7655 107.652C73.7655 107.19 73.6136 106.833 73.31 106.582C73.013 106.331 72.4156 106.107 71.5179 105.909L70.0427 105.582C68.5641 105.265 67.4816 104.76 66.7951 104.067C66.1153 103.374 65.7754 102.44 65.7754 101.265C65.7754 99.7934 66.2506 98.6614 67.2011 97.8693C68.1516 97.0773 69.5179 96.6812 71.3001 96.6812C72.112 96.6812 72.9469 96.7439 73.805 96.8694C74.6631 96.9882 75.5509 97.1696 76.4684 97.4138V97.4138Z" fill="#E3664E"/>
<path d="M86.8249 99.4436C85.6632 99.4436 84.7622 99.8727 84.1219 100.731C83.4816 101.589 83.1615 102.797 83.1615 104.355C83.1615 105.906 83.4816 107.11 84.1219 107.968C84.7622 108.826 85.6632 109.256 86.8249 109.256C87.9932 109.256 88.8975 108.826 89.5378 107.968C90.178 107.11 90.4981 105.906 90.4981 104.355C90.4981 102.797 90.178 101.589 89.5378 100.731C88.8975 99.8727 87.9932 99.4436 86.8249 99.4436ZM86.8249 96.6812C89.2011 96.6812 91.0625 97.361 92.409 98.7207C93.7556 100.08 94.4288 101.958 94.4288 104.355C94.4288 106.744 93.7556 108.618 92.409 109.978C91.0625 111.338 89.2011 112.018 86.8249 112.018C84.4552 112.018 82.5938 111.338 81.2407 109.978C79.8942 108.618 79.2209 106.744 79.2209 104.355C79.2209 101.958 79.8942 100.08 81.2407 98.7207C82.5938 97.361 84.4552 96.6812 86.8249 96.6812Z" fill="#E3664E"/>
<path d="M101.993 103.503C102.792 103.503 103.363 103.354 103.706 103.057C104.056 102.76 104.231 102.272 104.231 101.592C104.231 100.919 104.056 100.437 103.706 100.146C103.363 99.8558 102.792 99.7107 101.993 99.7107H100.389V103.503H101.993ZM100.389 106.136V111.73H96.5774V96.9483H102.399C104.346 96.9483 105.772 97.2751 106.676 97.9285C107.587 98.582 108.043 99.615 108.043 101.028C108.043 102.004 107.805 102.806 107.33 103.434C106.861 104.061 106.152 104.523 105.201 104.82C105.723 104.938 106.188 105.209 106.597 105.632C107.013 106.047 107.432 106.681 107.855 107.533L109.924 111.73H105.865L104.063 108.057C103.7 107.318 103.33 106.813 102.954 106.542C102.584 106.272 102.089 106.136 101.468 106.136H100.389Z" fill="#E3664E"/>
<path d="M121.746 97.4138V100.543C120.934 100.18 120.142 99.9057 119.369 99.7209C118.597 99.5361 117.868 99.4436 117.181 99.4436C116.27 99.4436 115.597 99.5689 115.162 99.8197C114.726 100.071 114.508 100.46 114.508 100.988C114.508 101.384 114.653 101.694 114.944 101.919C115.241 102.137 115.775 102.325 116.548 102.483L118.171 102.81C119.815 103.14 120.983 103.642 121.676 104.315C122.37 104.988 122.716 105.945 122.716 107.186C122.716 108.816 122.231 110.031 121.261 110.83C120.297 111.622 118.822 112.018 116.835 112.018C115.898 112.018 114.957 111.929 114.013 111.751C113.069 111.572 112.125 111.308 111.181 110.958V107.741C112.125 108.242 113.036 108.622 113.914 108.879C114.799 109.13 115.65 109.256 116.468 109.256C117.3 109.256 117.937 109.117 118.379 108.84C118.822 108.562 119.043 108.166 119.043 107.652C119.043 107.19 118.891 106.833 118.587 106.582C118.29 106.331 117.693 106.107 116.795 105.909L115.32 105.582C113.841 105.265 112.759 104.76 112.072 104.067C111.393 103.374 111.053 102.44 111.053 101.265C111.053 99.7934 111.528 98.6614 112.478 97.8693C113.429 97.0773 114.795 96.6812 116.577 96.6812C117.389 96.6812 118.224 96.7439 119.082 96.8694C119.94 96.9882 120.828 97.1696 121.746 97.4138V97.4138Z" fill="#E3664E"/>
</svg>
