<svg width="127" height="173" viewBox="0 0 127 173" fill="none" xmlns="http://www.w3.org/2000/svg">
<path d="M79.9031 134.207H45.3544L46.4689 121.205C46.4689 121.205 30.3323 111.62 32.2409 98.6627C34.7521 81.6082 36.9283 64.9074 36.9283 64.9074C36.9283 64.9074 28.6659 26.9299 29.1992 16.8042C29.2068 5.52483 41.8323 6.92151 43.2095 13.7167C46.5633 30.2651 53.1887 59.2854 53.1887 59.2854C53.1887 59.2854 46.0444 14.8105 46.0444 8.76328C46.0444 2.81969 57.2175 -3.57924 59.4177 9.87759C61.6179 23.3344 68.0483 60.0281 68.0483 60.0281C68.0483 60.0281 74.4761 22.2328 76.083 17.6789C78.3122 11.3635 87.0388 12.084 86.8564 20.2792C86.4854 36.9679 81.0505 63.3718 81.0505 63.3718C81.0505 63.3718 86.2677 42.0363 87.8488 33.7272C89.4298 25.418 99.0758 29.3092 98.5471 34.3964C98.0185 39.4836 94.6409 57.8824 93.4062 67.8294C91.8519 80.3452 95.0367 90.4454 93.5364 97.1769C90.4579 110.984 80.2738 122.319 80.2738 122.319L79.9031 134.207Z" fill="#F7CFBE"/>
<path d="M79.9031 134.207H45.3544L46.4689 121.205C46.4689 121.205 30.3323 111.62 32.2409 98.6627C34.7521 81.6082 36.9283 64.9074 36.9283 64.9074C36.9283 64.9074 28.6659 26.9299 29.1992 16.8042C29.2068 5.52483 41.8323 6.92151 43.2095 13.7167C46.5633 30.2651 53.1887 59.2854 53.1887 59.2854C53.1887 59.2854 46.0444 14.8105 46.0444 8.76328C46.0444 2.81969 57.2175 -3.57924 59.4177 9.87759C61.6179 23.3344 68.0483 60.0281 68.0483 60.0281C68.0483 60.0281 74.4761 22.2328 76.083 17.6789C78.3122 11.3635 87.0388 12.084 86.8564 20.2792C86.4854 36.9679 81.0505 63.3718 81.0505 63.3718C81.0505 63.3718 86.2677 42.0363 87.8488 33.7272C89.4298 25.418 99.0758 29.3092 98.5471 34.3964C98.0185 39.4836 94.6409 57.8824 93.4062 67.8294C91.8519 80.3452 95.0367 90.4454 93.5364 97.1769C90.4579 110.984 80.2738 122.319 80.2738 122.319L79.9031 134.207Z" stroke="#E16049" stroke-width="3.5552" stroke-linecap="round" stroke-linejoin="round"/>
<path d="M33.7265 108.321C33.7265 108.321 26.6689 93.091 24.4399 89.0042C22.2107 84.9174 16.572 70.8296 15.1521 67.4577C12.1802 60.3996 22.2107 57.0563 26.6689 61.5141C31.1264 65.9717 37.8131 78.6026 37.8131 78.6026C37.8131 78.6026 45.479 81.5294 47.8428 82.3175C52.3013 83.8033 55.273 90.1185 55.273 90.1185" fill="#F7CFBE"/>
<path d="M33.7265 108.321C33.7265 108.321 26.6689 93.091 24.4399 89.0042C22.2107 84.9174 16.572 70.8296 15.1521 67.4577C12.1802 60.3996 22.2107 57.0563 26.6689 61.5141C31.1264 65.9717 37.8131 78.6026 37.8131 78.6026C37.8131 78.6026 45.479 81.5294 47.8428 82.3175C52.3013 83.8033 55.273 90.1185 55.273 90.1185" stroke="#E16049" stroke-width="3.5552" stroke-linecap="round" stroke-linejoin="round"/>
<path d="M113.785 142.445H13.0031C7.09592 142.445 2.30719 147.234 2.30719 153.141V159.558C2.30719 165.466 7.09592 170.254 13.0031 170.254H113.785C119.693 170.254 124.481 165.466 124.481 159.558V153.141C124.481 147.234 119.693 142.445 113.785 142.445Z" fill="#F7E6BE" stroke="#E16049" stroke-opacity="0.955882" stroke-width="3.91899" stroke-linecap="round" stroke-linejoin="bevel"/>
<path d="M35.8596 149.414V152.543C35.0477 152.18 34.2556 151.906 33.4834 151.721C32.7111 151.536 31.9817 151.444 31.2953 151.444C30.3844 151.444 29.7111 151.569 29.2755 151.82C28.8398 152.071 28.622 152.46 28.622 152.988C28.622 153.384 28.7672 153.695 29.0576 153.919C29.3546 154.137 29.8893 154.325 30.6616 154.483L32.2853 154.81C33.9289 155.14 35.0972 155.642 35.7903 156.315C36.4833 156.988 36.8299 157.945 36.8299 159.186C36.8299 160.817 36.3447 162.031 35.3744 162.83C34.4107 163.622 32.9355 164.018 30.9487 164.018C30.0114 164.018 29.0708 163.929 28.1269 163.751C27.183 163.573 26.2392 163.308 25.2953 162.959V159.741C26.2392 160.243 27.15 160.622 28.0279 160.879C28.9124 161.13 29.7639 161.256 30.5824 161.256C31.4141 161.256 32.051 161.117 32.4932 160.84C32.9355 160.563 33.1566 160.167 33.1566 159.652C33.1566 159.19 33.0048 158.833 32.7012 158.582C32.4041 158.332 31.8068 158.107 30.9091 157.909L29.4338 157.582C27.9553 157.265 26.8728 156.761 26.1864 156.067C25.5065 155.374 25.1665 154.441 25.1665 153.266C25.1665 151.794 25.6418 150.662 26.5923 149.87C27.5428 149.077 28.9091 148.681 30.6913 148.681C31.5032 148.681 32.3382 148.744 33.1962 148.87C34.0543 148.988 34.9421 149.17 35.8596 149.414V149.414Z" fill="#E3664E"/>
<path d="M40.1863 148.949H46.513C48.3942 148.949 49.8365 149.368 50.8398 150.206C51.8497 151.038 52.3547 152.226 52.3547 153.771C52.3547 155.322 51.8497 156.516 50.8398 157.355C49.8365 158.186 48.3942 158.602 46.513 158.602H43.9982V163.731H40.1863V148.949ZM43.9982 151.711V155.84H46.1071C46.8464 155.84 47.4173 155.662 47.82 155.305C48.2226 154.942 48.4239 154.431 48.4239 153.771C48.4239 153.111 48.2226 152.602 47.82 152.246C47.4173 151.889 46.8464 151.711 46.1071 151.711H43.9982Z" fill="#E3664E"/>
<path d="M61.7903 151.444C60.6286 151.444 59.7276 151.873 59.0873 152.731C58.447 153.589 58.1269 154.797 58.1269 156.355C58.1269 157.906 58.447 159.11 59.0873 159.969C59.7276 160.827 60.6286 161.256 61.7903 161.256C62.9586 161.256 63.8629 160.827 64.5032 159.969C65.1434 159.11 65.4635 157.906 65.4635 156.355C65.4635 154.797 65.1434 153.589 64.5032 152.731C63.8629 151.873 62.9586 151.444 61.7903 151.444ZM61.7903 148.681C64.1665 148.681 66.0279 149.361 67.3744 150.721C68.7209 152.081 69.3942 153.959 69.3942 156.355C69.3942 158.744 68.7209 160.619 67.3744 161.978C66.0279 163.338 64.1665 164.018 61.7903 164.018C59.4206 164.018 57.5592 163.338 56.2061 161.978C54.8596 160.619 54.1863 158.744 54.1863 156.355C54.1863 153.959 54.8596 152.081 56.2061 150.721C57.5592 149.361 59.4206 148.681 61.7903 148.681Z" fill="#E3664E"/>
<path d="M83.9884 162.919C83.2887 163.282 82.5593 163.556 81.8002 163.741C81.0411 163.926 80.2491 164.018 79.424 164.018C76.9619 164.018 75.0114 163.332 73.5725 161.959C72.1335 160.579 71.4141 158.711 71.4141 156.355C71.4141 153.992 72.1335 152.124 73.5725 150.751C75.0114 149.371 76.9619 148.681 79.424 148.681C80.2491 148.681 81.0411 148.774 81.8002 148.959C82.5593 149.144 83.2887 149.417 83.9884 149.78V152.84C83.2821 152.358 82.5857 152.005 81.8992 151.781C81.2128 151.556 80.49 151.444 79.7309 151.444C78.3712 151.444 77.3019 151.879 76.523 152.751C75.7441 153.622 75.3547 154.823 75.3547 156.355C75.3547 157.879 75.7441 159.078 76.523 159.949C77.3019 160.82 78.3712 161.256 79.7309 161.256C80.49 161.256 81.2128 161.143 81.8992 160.919C82.5857 160.695 83.2821 160.342 83.9884 159.86V162.919Z" fill="#E3664E"/>
<path d="M87.1565 148.949H90.9684V154.345L96.4635 148.949H100.889L93.7704 155.949L101.622 163.731H96.8496L90.9684 157.909V163.731H87.1565V148.949Z" fill="#E3664E"/>
</svg>
